<?xml version="1.0" encoding="utf-8"?>
<!-- Generator: Adobe Illustrator 18.1.1, SVG Export Plug-In . SVG Version: 6.00 Build 0)  -->
<svg version="1.1" id="Layer_1" xmlns="http://www.w3.org/2000/svg" xmlns:xlink="http://www.w3.org/1999/xlink" x="0px" y="0px"
	 viewBox="0 40.7 300 68.5" enable-background="new 0 40.7 300 68.5" xml:space="preserve">
<g>
	<path fill="#FFFFFF" d="M92.1,76.4c-1.1-0.6-2.4-0.9-3.9-0.9h-8.1v1h1.1c0.4,0,0.7,0.1,0.8,0.2c0.2,0.1,0.2,0.4,0.2,0.7v11.4
		c0,0.3-0.1,0.5-0.2,0.7c-0.2,0.2-0.4,0.3-0.7,0.3h-1.3v1h8.4c1.3,0,2.6-0.3,3.7-1c1.2-0.7,2-1.5,2.6-2.7c0.6-1.1,0.9-2.4,0.9-3.9
		c0-1.5-0.3-2.8-1-3.9C94.1,77.9,93.2,77,92.1,76.4z M91.6,87c-0.3,0.8-0.8,1.5-1.6,1.9c-0.7,0.5-1.6,0.7-2.5,0.7h-1.1
		c-0.3,0-0.5-0.1-0.7-0.2c-0.1-0.1-0.2-0.4-0.2-0.7V77.2c0-0.3,0.1-0.5,0.3-0.6c0.2-0.1,0.6-0.2,1.3-0.2c1.3,0,2.2,0.2,2.9,0.6
		c0.6,0.4,1.2,1.1,1.5,2c0.4,1,0.6,2.3,0.6,4.1C92,84.9,91.9,86.2,91.6,87z"/>
	<path fill="#FFFFFF" d="M114.1,89.4c-0.2-0.1-0.4-0.4-0.5-0.8l-5.7-13.6h-1.1L101.3,88c-0.2,0.5-0.5,0.9-0.9,1.3
		c-0.3,0.2-0.6,0.3-1,0.3h-0.3v1h5.7v-1h-0.5c-0.6,0-1-0.1-1.3-0.4c-0.3-0.3-0.5-0.6-0.5-1.1c0-0.3,0.1-0.7,0.3-1.2l0.5-1.3h5.7
		l1.2,2.8c0.1,0.2,0.1,0.4,0.1,0.5c0,0.2-0.1,0.3-0.3,0.5c-0.2,0.1-0.6,0.2-1.1,0.2h-0.7v1h7.1v-1h-0.6
		C114.5,89.6,114.3,89.6,114.1,89.4z M103.8,84.7l2.4-5.8l2.4,5.8H103.8z"/>
	<path fill="#FFFFFF" d="M129.2,76.4c0.7,0,1.3,0.3,1.7,0.7c0.4,0.4,0.6,1,0.6,1.7v7l-8.2-10.4h-4.7v1h0.7c0.7,0,1.3,0.3,1.7,0.9
		v9.8c0,0.7-0.2,1.4-0.6,1.8c-0.4,0.5-0.9,0.7-1.5,0.7h-0.4v1h6.1v-1h-0.3c-0.6,0-1.2-0.2-1.6-0.6c-0.4-0.4-0.6-1.1-0.6-2.1v-8.3
		l9.3,11.9h1.2V78.8c0-0.7,0.2-1.3,0.5-1.7c0.3-0.4,0.9-0.6,1.7-0.7v-1h-5.5V76.4z"/>
	<path fill="#FFFFFF" d="M138.7,76.4h1.3c0.3,0,0.6,0.1,0.7,0.2c0.2,0.1,0.2,0.3,0.2,0.6v11.6c0,0.3-0.1,0.5-0.3,0.6
		c-0.2,0.1-0.5,0.2-0.9,0.2h-1.2v1h7.7v-1h-1.2c-0.3,0-0.6-0.1-0.8-0.2c-0.1-0.1-0.2-0.3-0.2-0.6V77.1c0-0.2,0.1-0.4,0.2-0.5
		c0.1-0.1,0.4-0.2,0.7-0.2h1.4v-1h-7.7V76.4z"/>
	<path fill="#FFFFFF" d="M162.1,88.4c-0.8,0.8-1.8,1.2-3.1,1.2h-1.8c-0.4,0-0.7-0.1-0.9-0.2c-0.1-0.1-0.2-0.3-0.2-0.5v-5.6h0.6
		c0.9,0,1.6,0.2,2,0.7c0.4,0.5,0.7,1.3,0.8,2.5h0.9v-7h-0.9c-0.1,1-0.3,1.8-0.8,2.2c-0.4,0.5-1.1,0.7-1.9,0.7h-0.7v-5.2
		c0-0.2,0.1-0.4,0.2-0.5c0.1-0.1,0.4-0.2,0.7-0.2h2.1c0.8,0,1.5,0.1,2,0.4c0.5,0.3,0.9,0.7,1.2,1.2c0.3,0.5,0.6,1.4,0.8,2.7h0.9
		l-0.3-5.3h-13.2v1h1.2c0.4,0,0.7,0.1,0.9,0.2c0.2,0.1,0.2,0.3,0.2,0.5v11.6c0,0.3-0.1,0.5-0.2,0.6c-0.2,0.2-0.4,0.2-0.7,0.2h-1.4v1
		h13.7l0.2-5.8h-0.9C163.4,86.4,162.9,87.6,162.1,88.4z"/>
	<path fill="#FFFFFF" d="M180.3,88.5c-0.7,0.8-1.5,1.2-2.3,1.2h-2.2c-0.5,0-0.9-0.1-1-0.2c-0.1-0.1-0.2-0.4-0.2-0.9V77.3
		c0-0.3,0.1-0.6,0.2-0.7c0.1-0.1,0.4-0.2,0.8-0.2h1.3v-1h-7.8v1h1.2c0.4,0,0.6,0.1,0.8,0.2c0.2,0.1,0.2,0.3,0.2,0.6v11.6
		c0,0.3-0.1,0.5-0.2,0.6c-0.1,0.1-0.4,0.2-0.7,0.2h-1.3v1h13.3l0.3-5.8h-0.9C181.6,86.5,181,87.7,180.3,88.5z"/>
	<path fill="#FFFFFF" d="M205,82.1c-0.6-0.2-1.6-0.5-3-0.8c-1.3-0.3-2.1-0.5-2.6-0.7c-0.5-0.2-0.9-0.5-1.1-0.9
		c-0.2-0.3-0.3-0.7-0.3-1.1c0-0.7,0.3-1.3,0.9-1.8c0.6-0.5,1.3-0.7,2.2-0.7c1.1,0,2,0.4,2.9,1.1c0.9,0.7,1.6,1.9,2,3.4h0.9l-0.1-5.2
		H206l-1,1.3c-1.2-1-2.6-1.5-4.1-1.5c-1.6,0-2.8,0.4-3.7,1.3c-0.9,0.9-1.4,2-1.4,3.4c0,0.8,0.2,1.5,0.5,2.1c0.3,0.6,0.9,1,1.6,1.4
		c0.7,0.4,1.9,0.8,3.6,1.1c1.2,0.3,2,0.5,2.3,0.6c0.6,0.2,1,0.5,1.3,0.9c0.3,0.4,0.4,0.8,0.4,1.4c0,0.8-0.3,1.4-0.9,1.9
		c-0.6,0.5-1.5,0.8-2.6,0.8c-2.7,0-4.5-1.6-5.4-4.8h-0.9v5.6h0.8l1.2-1.5c1.3,1.1,2.7,1.6,4.3,1.6c1.7,0,3.1-0.5,4.3-1.5
		c1-0.8,1.4-1.9,1.4-3.3c0-0.9-0.2-1.7-0.7-2.4C206.5,83,205.9,82.5,205,82.1z"/>
	<path fill="#FFFFFF" d="M212.6,76.4h1.4c0.3,0,0.6,0.1,0.7,0.2c0.2,0.1,0.2,0.3,0.2,0.6v11.6c0,0.3-0.1,0.5-0.3,0.6
		c-0.2,0.1-0.5,0.2-0.9,0.2h-1.2v1h7.7v-1h-1.2c-0.3,0-0.6-0.1-0.8-0.2c-0.1-0.1-0.2-0.3-0.2-0.6V77.1c0-0.2,0.1-0.4,0.2-0.5
		c0.1-0.1,0.4-0.2,0.7-0.2h1.4v-1h-7.7V76.4z"/>
	<path fill="#FFFFFF" d="M235.2,85.7l-3.4-10.2h-6.1v1h1.2c0.4,0,0.7,0.1,0.8,0.2c0.1,0.1,0.2,0.4,0.2,0.8v9.8
		c0,0.7-0.2,1.2-0.6,1.7c-0.4,0.4-0.9,0.7-1.7,0.7v1h5.6v-1c-0.8-0.1-1.3-0.3-1.7-0.7c-0.4-0.4-0.6-0.9-0.6-1.6V76.3l4.8,14.3h0.9
		l4.8-14.2v12.4c0,0.3-0.1,0.5-0.2,0.6c-0.1,0.1-0.3,0.2-0.6,0.2h-1.5v1h7.7v-1h-1.2c-0.3,0-0.6-0.1-0.8-0.2
		c-0.1-0.1-0.2-0.3-0.2-0.6V77.2c0-0.3,0.1-0.5,0.2-0.6c0.1-0.1,0.4-0.2,0.7-0.2h1.4v-1h-6.2L235.2,85.7z"/>
	<path fill="#FFFFFF" d="M259.7,88.3c-0.9,0.9-2,1.4-3.3,1.4c-1.3,0-2.3-0.5-2.9-1.4c-0.8-1.2-1.2-3.1-1.2-5.5
		c0-2.3,0.4-4.1,1.1-5.2c0.7-1.1,1.7-1.6,2.8-1.6c1,0,2,0.4,2.8,1.3c0.8,0.8,1.4,2.1,1.7,3.9h0.9l-0.3-6.1h-0.8l-0.7,1.5
		c-0.7-0.6-1.4-1-2-1.2c-0.6-0.2-1.3-0.3-2-0.3c-1.8,0-3.5,0.6-4.8,1.9c-1.6,1.5-2.4,3.5-2.4,6.1c0,2.3,0.7,4.2,2.1,5.6
		c1.4,1.5,3.1,2.2,5.2,2.2c1.6,0,3-0.5,4-1.5c1.1-1,1.8-2.4,2-4.1H261C260.8,86.6,260.3,87.6,259.7,88.3z"/>
	<path fill="#FFFFFF" d="M277.9,76.1c-1.2-0.7-2.5-1-3.9-1c-2.2,0-4,0.7-5.4,2.2c-1.5,1.5-2.2,3.4-2.2,5.7c0,1.5,0.3,2.9,1,4.1
		c0.7,1.2,1.6,2.1,2.7,2.8c1.2,0.7,2.5,1,3.9,1c2.2,0,4-0.8,5.5-2.3c1.5-1.5,2.2-3.4,2.2-5.7c0-1.5-0.3-2.8-1-4
		C280,77.7,279.1,76.8,277.9,76.1z M276.9,88.3c-0.7,1-1.7,1.6-2.9,1.6c-0.8,0-1.5-0.2-2.2-0.7c-0.6-0.4-1.1-1.1-1.4-2.1
		c-0.3-0.9-0.5-2.3-0.5-4.1c0-1.7,0.2-3.1,0.5-4.1c0.4-1,0.8-1.7,1.4-2.2c0.6-0.4,1.3-0.7,2.1-0.7c0.8,0,1.5,0.2,2.2,0.7
		c0.6,0.4,1.1,1.1,1.4,2c0.3,0.9,0.5,2.3,0.5,4.1C278,85.4,277.6,87.2,276.9,88.3z"/>
	<path fill="#FFFFFF" d="M299.1,84.8c-0.2,1.6-0.7,2.8-1.5,3.6c-0.8,0.8-1.8,1.2-3.1,1.2h-1.8c-0.4,0-0.7-0.1-0.9-0.2
		c-0.1-0.1-0.2-0.3-0.2-0.5v-5.6h0.6c0.9,0,1.6,0.2,2,0.7c0.4,0.5,0.7,1.3,0.8,2.5h0.9v-7H295c-0.1,1-0.3,1.8-0.8,2.2
		c-0.4,0.5-1.1,0.7-1.9,0.7h-0.7v-5.2c0-0.2,0.1-0.4,0.2-0.5c0.1-0.1,0.4-0.2,0.7-0.2h2.1c0.8,0,1.5,0.1,2,0.4
		c0.5,0.3,0.9,0.7,1.2,1.2c0.3,0.5,0.6,1.4,0.8,2.7h0.9l-0.3-5.3H286v1h1.2c0.4,0,0.7,0.1,0.9,0.2c0.2,0.1,0.2,0.3,0.2,0.5v11.6
		c0,0.3-0.1,0.5-0.2,0.6c-0.2,0.2-0.4,0.2-0.7,0.2H286v1h13.7l0.2-5.8H299.1z"/>
	<polygon fill="#FFFFFF" points="81.1,66.8 82.3,66.8 82.3,60.4 84,60.4 84,59.3 79.4,59.3 79.4,60.4 81.1,60.4 	"/>
	<polygon fill="#FFFFFF" points="87.6,63.3 90.8,63.3 90.8,66.8 91.9,66.8 91.9,59.3 90.8,59.3 90.8,62.2 87.6,62.2 87.6,59.3 
		86.5,59.3 86.5,66.8 87.6,66.8 	"/>
	<polygon fill="#FFFFFF" points="99.4,65.7 96.4,65.7 96.4,63.2 99.3,63.2 99.3,62.2 96.4,62.2 96.4,60.4 99.4,60.4 99.4,59.3 
		95.2,59.3 95.2,66.8 99.4,66.8 	"/>
	<polygon fill="#FFFFFF" points="110.2,65.7 108,65.7 108,59.3 106.9,59.3 106.9,66.8 110.2,66.8 	"/>
	<path fill="#FFFFFF" d="M116,58.8l-3.7,7.9h1.2l0.8-1.8h3.2l0.8,1.8h1.2L116,58.8z M114.8,63.9l1.2-2.5l1.1,2.5H114.8z"/>
	<polygon fill="#FFFFFF" points="125.8,62 127.7,67.2 131,59.3 129.8,59.3 127.7,64.3 125.8,58.9 123.7,64.3 121.8,59.3 120.6,59.3 
		123.7,67.3 	"/>
	<path fill="#FFFFFF" d="M141.5,66.9c1.1,0,2-0.4,2.8-1.1c0.8-0.7,1.2-1.7,1.2-2.7c0-1.1-0.4-2-1.1-2.7c-0.8-0.8-1.7-1.1-2.7-1.1
		c-1.1,0-2,0.4-2.8,1.1c-0.8,0.8-1.2,1.7-1.2,2.7c0,1.2,0.4,2.2,1.3,2.9C139.6,66.6,140.5,66.9,141.5,66.9z M139.5,61
		c0.5-0.5,1.2-0.8,2-0.8c0.8,0,1.4,0.3,2,0.8c0.5,0.5,0.8,1.2,0.8,2c0,0.8-0.3,1.5-0.8,2c-0.5,0.5-1.2,0.8-2,0.8
		c-0.7,0-1.4-0.3-1.9-0.8c-0.6-0.5-0.8-1.2-0.8-2C138.7,62.2,139,61.6,139.5,61z"/>
	<polygon fill="#FFFFFF" points="152,62.2 149.5,62.2 149.5,60.4 152.1,60.4 152.1,59.3 148.3,59.3 148.3,66.8 149.5,66.8 
		149.5,63.2 152,63.2 	"/>
	<polygon fill="#FFFFFF" points="156,63.2 158.5,63.2 158.5,62.2 156,62.2 156,60.4 158.6,60.4 158.6,59.3 154.9,59.3 154.9,66.8 
		156,66.8 	"/>
	<rect x="161.4" y="59.3" fill="#FFFFFF" width="1.1" height="7.5"/>
	<path fill="#FFFFFF" d="M171.3,66.4V65c-0.2,0.2-0.4,0.3-0.5,0.4c-0.2,0.1-0.3,0.2-0.5,0.3c-0.3,0.1-0.6,0.2-1,0.2
		c-0.8,0-1.4-0.3-1.9-0.8c-0.5-0.5-0.8-1.2-0.8-2c0-0.8,0.3-1.5,0.8-2c0.5-0.6,1.2-0.8,1.9-0.8c0.7,0,1.4,0.3,2,0.8v-1.3
		c-0.6-0.4-1.3-0.5-1.9-0.5c-1.2,0-2.2,0.5-3,1.4c-0.6,0.7-0.9,1.6-0.9,2.5c0,1.1,0.4,2,1.1,2.7c0.8,0.7,1.7,1.1,2.7,1.1
		C170,66.9,170.7,66.7,171.3,66.4z"/>
	<polygon fill="#FFFFFF" points="178.4,65.7 175.4,65.7 175.4,63.2 178.3,63.2 178.3,62.2 175.4,62.2 175.4,60.4 178.4,60.4 
		178.4,59.3 174.2,59.3 174.2,66.8 178.4,66.8 	"/>
	<path fill="#FFFFFF" d="M189.4,59.2c-1.1,0-2,0.4-2.8,1.1c-0.8,0.8-1.2,1.7-1.2,2.7c0,1.2,0.4,2.2,1.3,2.9c0.8,0.7,1.6,1,2.6,1
		c1.1,0,2-0.4,2.8-1.1c0.8-0.7,1.2-1.7,1.2-2.7c0-1.1-0.4-2-1.1-2.7C191.4,59.5,190.5,59.2,189.4,59.2z M191.4,65
		c-0.5,0.5-1.2,0.8-2,0.8c-0.7,0-1.4-0.3-1.9-0.8c-0.6-0.5-0.8-1.2-0.8-2c0-0.8,0.3-1.4,0.8-2c0.5-0.5,1.2-0.8,2-0.8
		c0.8,0,1.4,0.3,2,0.8c0.5,0.5,0.8,1.2,0.8,2C192.2,63.8,191.9,64.5,191.4,65z"/>
	<polygon fill="#FFFFFF" points="197.4,63.2 199.9,63.2 199.9,62.2 197.4,62.2 197.4,60.4 200,60.4 200,59.3 196.2,59.3 196.2,66.8 
		197.4,66.8 	"/>
	<path fill="#FFFFFF" d="M54.5,76.9h-0.2l-5-12.5H51c0.4,0,0.7-0.3,0.7-0.7c0-0.4-0.3-0.7-0.7-0.7H37c-0.3-1.6-1.7-2.8-3.4-2.8
		c-1.7,0-3.1,1.2-3.4,2.8H17.5c-0.4,0-0.7,0.3-0.7,0.7c0,0.4,0.3,0.7,0.7,0.7h1.8l-5,12.5H14c-0.4,0-0.7,0.3-0.7,0.7
		c0,3.8,3.1,7,7,7c3.8,0,7-3.1,7-7c0-0.4-0.3-0.7-0.7-0.7h-0.2l-5-12.5h8.8c0.3,1.4,1.4,2.4,2.7,2.7v23.8H28c-0.4,0-0.7,0.3-0.7,0.7
		s0.3,0.7,0.7,0.7h12.5c0.4,0,0.7-0.3,0.7-0.7s-0.3-0.7-0.7-0.7h-6.3V67.1c1.4-0.3,2.4-1.4,2.7-2.7h10.2l-5,12.5h-0.2
		c-0.4,0-0.7,0.3-0.7,0.7c0,3.8,3.1,7,7,7s7-3.1,7-7C55.2,77.2,54.8,76.9,54.5,76.9z M20.3,83.2c-2.8,0-5.2-2.1-5.5-4.9h11.1
		C25.5,81,23.2,83.2,20.3,83.2z M24.9,76.9h-9.1l4.5-11.4L24.9,76.9z M33.6,65.7c-1.2,0-2.1-0.9-2.1-2.1c0-1.2,0.9-2.1,2.1-2.1
		s2.1,0.9,2.1,2.1C35.6,64.8,34.7,65.7,33.6,65.7z M48.2,65.5l4.5,11.4h-9.1L48.2,65.5z M48.2,83.2c-2.8,0-5.2-2.1-5.5-4.9h11.1
		C53.4,81,51,83.2,48.2,83.2z"/>
	<polygon fill="#FFFFFF" points="24.9,55.3 23.4,55.3 23.4,54.5 24.8,54.5 24.8,53.4 23.4,53.4 23.4,52.6 24.9,52.6 24.9,51.6 
		22.2,51.6 22.2,56.4 24.9,56.4 	"/>
	<path fill="#FFFFFF" d="M30.4,55.5c-0.4,0-0.7-0.2-1.1-0.5l-0.5,1c0.2,0.1,0.4,0.3,0.7,0.4c0.3,0.1,0.6,0.2,1,0.2
		c0.3,0,0.5,0,0.8-0.1c0.2-0.1,0.4-0.2,0.6-0.4c0.3-0.3,0.4-0.7,0.4-1.2c0-0.2,0-0.3-0.1-0.4S32.1,54.1,32,54
		c-0.1-0.1-0.2-0.2-0.4-0.3c-0.1-0.1-0.3-0.2-0.6-0.2c-0.3-0.1-0.4-0.1-0.5-0.1c-0.1,0-0.1,0-0.2-0.1c-0.2-0.1-0.2-0.2-0.2-0.3
		c0-0.1,0-0.2,0.1-0.3c0.1-0.1,0.2-0.1,0.4-0.1c0.3,0,0.5,0.1,0.8,0.3l0.5-1c-0.2-0.1-0.5-0.2-0.7-0.3s-0.5-0.1-0.8-0.1
		c-0.5,0-0.9,0.2-1.2,0.5c-0.3,0.3-0.4,0.7-0.4,1.1c0,0.4,0.1,0.7,0.4,0.9c0.1,0.1,0.2,0.1,0.3,0.2s0.3,0.1,0.6,0.2
		c0.3,0.1,0.4,0.1,0.5,0.2c0.1,0.1,0.2,0.2,0.2,0.3c0,0.1,0,0.2-0.1,0.3C30.8,55.4,30.6,55.5,30.4,55.5z"/>
	<polygon fill="#FFFFFF" points="36.9,56.4 38.1,56.4 38.1,52.6 39.2,52.6 39.2,51.6 35.9,51.6 35.9,52.6 36.9,52.6 	"/>
	<path fill="#FFFFFF" d="M43.6,56.5c0.2,0,0.4-0.1,0.5-0.2c0.1-0.1,0.2-0.3,0.2-0.5s-0.1-0.4-0.2-0.5C44,55.1,43.8,55,43.6,55
		c-0.2,0-0.4,0.1-0.6,0.3c-0.1,0.1-0.2,0.3-0.2,0.5c0,0.2,0.1,0.3,0.2,0.5C43.2,56.4,43.4,56.5,43.6,56.5z"/>
	<polygon fill="#FFFFFF" points="22.4,97.5 23.1,97.5 23.1,101.2 24.3,101.2 24.3,96.5 22.4,96.5 	"/>
	<path fill="#FFFFFF" d="M31.5,96.8c-0.2-0.2-0.4-0.3-0.6-0.4c-0.3-0.1-0.5-0.1-0.9-0.1c-0.3,0-0.6,0-0.9,0.1s-0.5,0.2-0.7,0.4
		c-0.3,0.3-0.5,0.8-0.5,1.3c0,0.3,0.1,0.5,0.2,0.8c0.1,0.2,0.2,0.4,0.4,0.6c0.3,0.2,0.6,0.3,1,0.3c0.1,0,0.2,0,0.3,0
		c0.1,0,0.2-0.1,0.4-0.1l-1.4,1.6h1.4l1.1-1.4c0.2-0.3,0.4-0.6,0.5-0.9c0.1-0.3,0.2-0.6,0.2-0.9c0-0.2,0-0.4-0.1-0.7
		C31.8,97.2,31.7,97,31.5,96.8z M30.6,98.6c-0.2,0.2-0.3,0.2-0.6,0.2c-0.1,0-0.2,0-0.3-0.1c-0.1,0-0.2-0.1-0.3-0.2
		c-0.1-0.1-0.2-0.3-0.2-0.5s0.1-0.4,0.2-0.5c0.2-0.2,0.4-0.3,0.6-0.3c0.2,0,0.4,0.1,0.6,0.2c0.2,0.2,0.2,0.3,0.2,0.5
		C30.8,98.2,30.7,98.4,30.6,98.6z"/>
	<path fill="#FFFFFF" d="M37.9,99.1c-0.1-0.1-0.2-0.2-0.3-0.2c-0.1-0.1-0.2-0.1-0.4-0.2c0.2-0.1,0.4-0.2,0.5-0.3
		c0.2-0.2,0.3-0.4,0.3-0.7c0-0.4-0.1-0.7-0.3-0.9c-0.1-0.2-0.3-0.3-0.5-0.3c-0.2-0.1-0.5-0.1-0.7-0.1c-0.3,0-0.5,0-0.7,0.1
		c-0.2,0.1-0.4,0.2-0.5,0.4c-0.2,0.2-0.3,0.5-0.3,0.9c0,0.1,0,0.2,0.1,0.4c0,0.1,0.1,0.2,0.2,0.3c0.1,0.1,0.1,0.1,0.2,0.2
		c0.1,0.1,0.2,0.1,0.3,0.2c-0.2,0.1-0.3,0.1-0.4,0.2c-0.1,0-0.2,0.1-0.2,0.2c-0.1,0.1-0.2,0.2-0.3,0.4c-0.1,0.2-0.1,0.3-0.1,0.5
		c0,0.3,0.1,0.6,0.4,0.9c0.2,0.2,0.4,0.3,0.6,0.4c0.3,0.1,0.5,0.1,0.8,0.1c0.3,0,0.5,0,0.7-0.1s0.4-0.2,0.6-0.3
		c0.1-0.1,0.3-0.3,0.3-0.4s0.1-0.3,0.1-0.5c0-0.2,0-0.3-0.1-0.4C38.1,99.3,38,99.2,37.9,99.1z M36,97.3c0.1-0.1,0.2-0.2,0.4-0.2
		c0.1,0,0.3,0.1,0.4,0.2c0.1,0.1,0.2,0.2,0.2,0.4c0,0.1-0.1,0.3-0.2,0.4c-0.1,0.1-0.2,0.2-0.4,0.2c-0.1,0-0.3-0.1-0.4-0.2
		c-0.1-0.1-0.2-0.2-0.2-0.4C35.9,97.5,35.9,97.4,36,97.3z M36.8,100.2c-0.1,0.1-0.2,0.2-0.4,0.2c-0.2,0-0.3-0.1-0.4-0.2
		c-0.1-0.1-0.2-0.2-0.2-0.4s0.1-0.3,0.2-0.4c0.1-0.1,0.2-0.2,0.4-0.2c0.2,0,0.3,0.1,0.4,0.2c0.1,0.1,0.2,0.2,0.2,0.4
		S36.9,100.1,36.8,100.2z"/>
	<path fill="#FFFFFF" d="M44,98.4c-0.3-0.3-0.7-0.4-1.2-0.4c-0.1,0-0.2,0-0.4,0l0.1-0.5h1.6v-1h-2.5L41.3,99
		c0.2-0.1,0.3-0.1,0.4-0.2s0.3,0,0.4,0c0.3,0,0.6,0.1,0.8,0.2c0.2,0.1,0.3,0.3,0.3,0.6c0,0.2-0.1,0.4-0.2,0.5
		c-0.1,0.1-0.3,0.2-0.6,0.2c-0.2,0-0.5-0.1-0.8-0.2c-0.2-0.1-0.3-0.2-0.5-0.4l-0.2,1.2c0.2,0.1,0.5,0.3,0.7,0.3
		c0.2,0.1,0.5,0.1,0.8,0.1c0.7,0,1.2-0.2,1.5-0.5c0.3-0.3,0.5-0.7,0.5-1.2c0-0.2,0-0.4-0.1-0.7C44.3,98.8,44.2,98.6,44,98.4z"/>
	<path fill="#FFFFFF" d="M34.3,40.7C15.4,40.7,0,56.1,0,75s15.4,34.3,34.3,34.3S68.5,93.9,68.5,75S53.1,40.7,34.3,40.7z M34.3,107.5
		C16.3,107.5,1.8,92.9,1.8,75s14.6-32.5,32.5-32.5S66.7,57.1,66.7,75S52.2,107.5,34.3,107.5z"/>
</g>
</svg>
